# xmcd
#
# Track frame offsets: 
#        150
#        11913
#        27629
#        38299
#        50918
#        64287
#        77336
#        91043
#        108144
#        121900
#        135918
#        149139
#        163249
#        173132
#        180725
#        193747
#
# Disc length: 2678 seconds
#
# Revision: 0
# Processed by: cddbd v1.5.2PL0 Copyright (c) Steve Scherf et al.
# Submitted via: ExactAudioCopy v0.95b4
#
DISCID=d80a7410
DTITLE=KALE - KALE
DYEAR=2006
DGENRE=Ethnic
TTITLE0=Sar me khara avava
TTITLE1=L´ol´i rokl´a
TTITLE2=Saj saj
TTITLE3=Nane maro
TTITLE4=La da nadikhav
TTITLE5=Suno mange dzalas
TTITLE6=Rumunika
TTITLE7=Lakere kale bala
TTITLE8=Jekh, duj, trin, star, pandz
TTITLE9=Av tu av
TTITLE10=Ma dara
TTITLE11=Kanada
TTITLE12=Miro sero
TTITLE13=E kapura
TTITLE14=Slunecny hrob
TTITLE15=Because
EXTD=
EXTT0=
EXTT1=
EXTT2=
EXTT3=
EXTT4=
EXTT5=
EXTT6=
EXTT7=
EXTT8=
EXTT9=
EXTT10=
EXTT11=
EXTT12=
EXTT13=
EXTT14=
EXTT15=
PLAYORDER=
